<svg width="192" height="73" viewBox="0 0 192 73" fill="none" xmlns="http://www.w3.org/2000/svg">
<path d="M1.8 29L5.88 8H9.72L14.43 20.39L19.14 8H22.98L27.06 29H22.47L20.28 17.66L15.99 29H12.87L8.58 17.66L6.39 29H1.8ZM39.0598 29.39C37.6398 29.39 36.3048 29.11 35.0548 28.55C33.8048 27.98 32.7048 27.195 31.7548 26.195C30.8048 25.195 30.0598 24.04 29.5198 22.73C28.9798 21.41 28.7098 20 28.7098 18.5C28.7098 17 28.9798 15.595 29.5198 14.285C30.0598 12.965 30.8048 11.805 31.7548 10.805C32.7048 9.805 33.8048 9.025 35.0548 8.465C36.3048 7.895 37.6398 7.61 39.0598 7.61C40.4898 7.61 41.8298 7.895 43.0798 8.465C44.3298 9.025 45.4298 9.805 46.3798 10.805C47.3298 11.805 48.0698 12.965 48.5998 14.285C49.1398 15.595 49.4098 17 49.4098 18.5C49.4098 20 49.1398 21.41 48.5998 22.73C48.0698 24.04 47.3298 25.195 46.3798 26.195C45.4298 27.195 44.3298 27.98 43.0798 28.55C41.8298 29.11 40.4898 29.39 39.0598 29.39ZM39.0598 24.89C39.8598 24.89 40.6098 24.725 41.3098 24.395C42.0198 24.055 42.6448 23.595 43.1848 23.015C43.7248 22.425 44.1448 21.745 44.4448 20.975C44.7548 20.205 44.9098 19.38 44.9098 18.5C44.9098 17.62 44.7548 16.795 44.4448 16.025C44.1448 15.255 43.7248 14.58 43.1848 14C42.6448 13.41 42.0198 12.95 41.3098 12.62C40.6098 12.28 39.8598 12.11 39.0598 12.11C38.2598 12.11 37.5048 12.28 36.7948 12.62C36.0948 12.95 35.4748 13.41 34.9348 14C34.3948 14.58 33.9698 15.255 33.6598 16.025C33.3598 16.795 33.2098 17.62 33.2098 18.5C33.2098 19.38 33.3598 20.205 33.6598 20.975C33.9698 21.745 34.3948 22.425 34.9348 23.015C35.4748 23.595 36.0948 24.055 36.7948 24.395C37.5048 24.725 38.2598 24.89 39.0598 24.89ZM51.9563 29V8H56.8163L64.4963 20.87V8H68.9963V29H64.1363L56.4563 16.13V29H51.9563ZM88.5105 8V12.5H82.5105V29H78.0105V12.5H72.0105V8H88.5105ZM98.7141 29V8H107.264C108.414 8 109.454 8.29 110.384 8.87C111.314 9.45 112.049 10.23 112.589 11.21C113.139 12.18 113.414 13.25 113.414 14.42C113.414 15.32 113.264 16.16 112.964 16.94C112.664 17.71 112.234 18.395 111.674 18.995C111.124 19.585 110.474 20.06 109.724 20.42L114.704 29H109.514L104.774 20.84H103.214V29H98.7141ZM103.214 16.34H106.724C107.124 16.34 107.489 16.24 107.819 16.04C108.149 15.83 108.414 15.555 108.614 15.215C108.814 14.875 108.914 14.5 108.914 14.09C108.914 13.68 108.814 13.305 108.614 12.965C108.414 12.625 108.149 12.355 107.819 12.155C107.489 11.945 107.124 11.84 106.724 11.84H103.214V16.34ZM126.247 29.39C124.827 29.39 123.492 29.11 122.242 28.55C120.992 27.98 119.892 27.195 118.942 26.195C117.992 25.195 117.247 24.04 116.707 22.73C116.167 21.41 115.897 20 115.897 18.5C115.897 17 116.167 15.595 116.707 14.285C117.247 12.965 117.992 11.805 118.942 10.805C119.892 9.805 120.992 9.025 122.242 8.465C123.492 7.895 124.827 7.61 126.247 7.61C127.677 7.61 129.017 7.895 130.267 8.465C131.517 9.025 132.617 9.805 133.567 10.805C134.517 11.805 135.257 12.965 135.787 14.285C136.327 15.595 136.597 17 136.597 18.5C136.597 20 136.327 21.41 135.787 22.73C135.257 24.04 134.517 25.195 133.567 26.195C132.617 27.195 131.517 27.98 130.267 28.55C129.017 29.11 127.677 29.39 126.247 29.39ZM126.247 24.89C127.047 24.89 127.797 24.725 128.497 24.395C129.207 24.055 129.832 23.595 130.372 23.015C130.912 22.425 131.332 21.745 131.632 20.975C131.942 20.205 132.097 19.38 132.097 18.5C132.097 17.62 131.942 16.795 131.632 16.025C131.332 15.255 130.912 14.58 130.372 14C129.832 13.41 129.207 12.95 128.497 12.62C127.797 12.28 127.047 12.11 126.247 12.11C125.447 12.11 124.692 12.28 123.982 12.62C123.282 12.95 122.662 13.41 122.122 14C121.582 14.58 121.157 15.255 120.847 16.025C120.547 16.795 120.397 17.62 120.397 18.5C120.397 19.38 120.547 20.205 120.847 20.975C121.157 21.745 121.582 22.425 122.122 23.015C122.662 23.595 123.282 24.055 123.982 24.395C124.692 24.725 125.447 24.89 126.247 24.89ZM150.666 8H155.976L148.686 19.55V29H144.186V19.55L136.896 8H142.206L146.436 14.66L150.666 8ZM161.662 8H166.732L174.352 29H169.582L168.382 25.7H160.012L158.812 29H154.042L161.662 8ZM161.662 21.2H166.732L164.182 14.24L161.662 21.2ZM176.732 29V8H181.232V24.5H189.482V29H176.732Z" fill="white"/>
<path d="M15.1 70V45.5H24.34C25.6817 45.5 26.895 45.8442 27.98 46.5325C29.0767 47.2092 29.9458 48.1192 30.5875 49.2625C31.2292 50.3942 31.55 51.6367 31.55 52.99C31.55 54.3667 31.2175 55.6208 30.5525 56.7525C29.8992 57.8842 29.0242 58.7883 27.9275 59.465C26.8308 60.1417 25.635 60.48 24.34 60.48H20.35V70H15.1ZM20.35 55.23H23.745C24.2117 55.23 24.6375 55.1133 25.0225 54.88C25.4075 54.635 25.7167 54.3142 25.95 53.9175C26.1833 53.5208 26.3 53.0833 26.3 52.605C26.3 52.1267 26.1833 51.6892 25.95 51.2925C25.7167 50.8958 25.4075 50.5808 25.0225 50.3475C24.6375 50.1025 24.2117 49.98 23.745 49.98H20.35V55.23ZM35.0732 70V45.5H40.3232V70H35.0732ZM45.0414 70V45.5H60.6514V50.75H50.2914V54.25H58.2714V59.5H50.2914V64.75H60.6514V70H45.0414ZM51.2714 43.575L52.6714 38.535H57.9214L54.7714 43.575H51.2714ZM83.0396 45.5V50.75H76.0396V70H70.7896V50.75H63.7896V45.5H83.0396ZM96.5092 70.455C94.8525 70.455 93.295 70.1283 91.8367 69.475C90.3783 68.81 89.095 67.8942 87.9867 66.7275C86.8783 65.5608 86.0092 64.2133 85.3792 62.685C84.7492 61.145 84.4342 59.5 84.4342 57.75C84.4342 56 84.7492 54.3608 85.3792 52.8325C86.0092 51.2925 86.8783 49.9392 87.9867 48.7725C89.095 47.6058 90.3783 46.6958 91.8367 46.0425C93.295 45.3775 94.8525 45.045 96.5092 45.045C98.1775 45.045 99.7408 45.3775 101.199 46.0425C102.658 46.6958 103.941 47.6058 105.049 48.7725C106.158 49.9392 107.021 51.2925 107.639 52.8325C108.269 54.3608 108.584 56 108.584 57.75C108.584 59.5 108.269 61.145 107.639 62.685C107.021 64.2133 106.158 65.5608 105.049 66.7275C103.941 67.8942 102.658 68.81 101.199 69.475C99.7408 70.1283 98.1775 70.455 96.5092 70.455ZM96.5092 65.205C97.4425 65.205 98.3175 65.0125 99.1342 64.6275C99.9625 64.2308 100.692 63.6942 101.322 63.0175C101.952 62.3292 102.442 61.5358 102.792 60.6375C103.153 59.7392 103.334 58.7767 103.334 57.75C103.334 56.7233 103.153 55.7608 102.792 54.8625C102.442 53.9642 101.952 53.1767 101.322 52.5C100.692 51.8117 99.9625 51.275 99.1342 50.89C98.3175 50.4933 97.4425 50.295 96.5092 50.295C95.5758 50.295 94.695 50.4933 93.8667 50.89C93.05 51.275 92.3267 51.8117 91.6967 52.5C91.0667 53.1767 90.5708 53.9642 90.2092 54.8625C89.8592 55.7608 89.6842 56.7233 89.6842 57.75C89.6842 58.7767 89.8592 59.7392 90.2092 60.6375C90.5708 61.5358 91.0667 62.3292 91.6967 63.0175C92.3267 63.6942 93.05 64.2308 93.8667 64.6275C94.695 65.0125 95.5758 65.205 96.5092 65.205ZM111.555 70V45.5H117.225L126.185 60.515V45.5H131.435V70H125.765L116.805 54.985V70H111.555ZM135.652 70V45.5H141.322L150.282 60.515V45.5H155.532V70H149.862L140.902 54.985V70H135.652ZM159.748 70V45.5H175.358V50.75H164.998V54.25H172.978V59.5H164.998V64.75H175.358V70H159.748Z" fill="white"/>
</svg>
